<svg width="664" height="114" viewBox="0 0 664 114" fill="none" xmlns="http://www.w3.org/2000/svg">
<path d="M74.6698 15.3542V1.22656H0V15.3542H28.0801V88.6568H46.5547V15.3542H74.6698Z" fill="white"/>
<path d="M114.634 27.7642C110.147 25.3804 105.274 24.1885 100.015 24.1885C94.6867 24.1885 89.6035 25.3804 84.7658 27.7993C79.928 30.2182 76.0017 33.9341 72.9518 38.9822C69.9019 44.0303 68.3945 50.2703 68.3945 57.7724C68.3945 65.2744 69.9019 71.4793 72.9518 76.3872C76.0017 81.295 79.893 84.9058 84.6957 87.1845C89.4984 89.4632 94.5815 90.62 99.9802 90.62C105.063 90.62 109.831 89.7787 114.283 88.0609C118.735 86.3432 122.381 83.9243 125.221 80.8043C128.06 77.6843 129.533 74.1085 129.708 70.1121L111.864 68.8501C111.373 70.673 110.217 72.4258 108.429 74.0384C106.641 75.651 103.836 76.4574 100.015 76.4574C97.1056 76.4574 94.6516 75.8614 92.7235 74.7045C90.7604 73.5477 89.3231 71.8299 88.3415 69.5162C87.395 67.2375 86.9042 64.433 86.9042 61.1027H129.743V57.7373C129.743 50.1651 128.341 43.855 125.571 38.8069C122.767 33.864 119.121 30.148 114.634 27.7642ZM86.9042 50.2002C86.9042 48.0267 87.395 46.0636 88.4116 44.2757C89.3932 42.4878 90.9006 41.0505 92.8287 39.9638C94.7919 38.877 97.1757 38.3512 100.015 38.3512C102.855 38.3512 105.239 38.877 107.202 39.9638C109.165 41.0505 110.602 42.4878 111.584 44.2757C112.53 46.0636 113.021 48.0267 113.021 50.2002H86.9042Z" fill="white"/>
<path d="M160.698 0H142.223V88.6572H160.698V0Z" fill="white"/>
<path d="M219.417 27.7642C214.93 25.3804 210.057 24.1885 204.798 24.1885C199.47 24.1885 194.387 25.3804 189.549 27.7993C184.711 30.2182 180.785 33.9341 177.735 38.9822C174.685 44.0303 173.178 50.2703 173.178 57.7724C173.178 65.2744 174.685 71.4793 177.735 76.3872C180.785 81.295 184.676 84.9058 189.479 87.1845C194.282 89.4632 199.365 90.62 204.763 90.62C209.847 90.62 214.614 89.7787 219.066 88.0609C223.518 86.3432 227.164 83.9243 230.004 80.8043C232.843 77.6843 234.316 74.1085 234.491 70.1121L216.647 68.8501C216.157 70.673 215 72.4258 213.212 74.0384C211.424 75.651 208.62 76.4574 204.798 76.4574C201.889 76.4574 199.435 75.8614 197.507 74.7045C195.544 73.5477 194.106 71.8299 193.125 69.5162C192.178 67.2375 191.687 64.433 191.687 61.1027H234.526V57.7373C234.526 50.1651 233.124 43.855 230.354 38.8069C227.55 33.864 223.904 30.148 219.417 27.7642ZM191.687 50.2002C191.687 48.0267 192.178 46.0636 193.195 44.2757C194.176 42.4878 195.684 41.0505 197.612 39.9638C199.575 38.877 201.959 38.3512 204.798 38.3512C207.638 38.3512 210.022 38.877 211.985 39.9638C213.948 41.0505 215.385 42.4878 216.367 44.2757C217.314 46.0636 217.804 48.0267 217.804 50.2002H191.687Z" fill="white"/>
<path d="M295.699 55.3535C290.967 52.549 285.182 50.7962 278.347 50.0601L271.861 49.3238C269.267 49.0083 267.304 48.3423 265.937 47.3958C264.569 46.4492 263.868 45.2223 263.868 43.7148C263.868 42.1373 264.675 40.8402 266.287 39.8587C267.9 38.8771 269.968 38.3512 272.457 38.3512C275.191 38.3512 277.505 38.9823 279.398 40.2092C281.256 41.4712 282.203 43.2591 282.203 45.5728L300.187 44.3108C300.187 39.9989 298.889 36.2829 296.26 33.2681C293.631 30.2182 290.231 27.9746 286.024 26.4672C281.817 24.9598 277.295 24.2236 272.457 24.2236C267.724 24.2236 263.272 24.9598 259.171 26.3971C255.034 27.8695 251.704 30.0079 249.18 32.8124C246.656 35.652 245.359 39.0524 245.359 43.0488C245.359 48.8681 247.252 53.4255 251.038 56.6506C254.824 59.9109 259.521 61.839 265.095 62.505L271.826 63.2411C275.402 63.6618 278.382 64.363 280.765 65.3796C283.149 66.3612 284.341 67.9738 284.341 70.1122C284.341 71.9351 283.36 73.4776 281.396 74.6695C279.433 75.8614 276.874 76.4924 273.719 76.4924C271.37 76.4924 269.197 76.1769 267.093 75.4758C265.025 74.8098 263.307 73.6529 261.975 71.9702C260.643 70.3226 259.977 68.114 259.977 65.3445L241.993 66.6066C241.993 72.1104 243.536 76.6327 246.621 80.2084C249.706 83.7842 253.632 86.4133 258.435 88.061C263.237 89.7086 268.32 90.55 273.719 90.55C278.977 90.55 283.78 89.8138 288.197 88.3064C292.614 86.7989 296.155 84.4853 298.819 81.3302C301.484 78.1751 302.816 74.2138 302.816 69.4812C302.816 62.8906 300.467 58.158 295.699 55.3535Z" fill="white"/>
<path d="M342.92 38.3162C346.566 38.3162 349.371 39.2978 351.299 41.2609C353.227 43.2241 354.629 46.4843 355.54 51.0767L373.77 49.8147C372.683 40.3144 369.423 33.6888 364.024 29.9027C358.625 26.1167 351.579 24.2236 342.92 24.2236C337.171 24.2236 331.842 25.4856 326.864 27.9746C321.921 30.4636 317.925 34.2497 314.875 39.2627C311.825 44.3108 310.318 50.4807 310.318 57.8074C310.318 65.0641 311.825 71.1639 314.875 76.1069C317.925 81.0498 321.886 84.7306 326.794 87.0794C331.702 89.4632 337.066 90.6552 342.92 90.6552C351.579 90.6552 358.625 88.8323 364.094 85.2215C369.563 81.6107 372.788 75.1252 373.77 65.8003L355.54 64.5383C354.629 68.9554 353.122 72.0403 351.053 73.8282C348.985 75.6161 346.251 76.5275 342.92 76.5275C338.258 76.5275 334.752 74.95 332.368 71.7949C329.984 68.6399 328.792 63.9423 328.792 57.6672C328.792 51.7427 330.055 47.0452 332.544 43.5396C335.033 40.069 338.503 38.3162 342.92 38.3162Z" fill="white"/>
<path d="M580.671 28.7108C576.219 25.731 570.785 24.2236 564.37 24.2236C557.464 24.2236 551.995 26.8177 547.999 32.0411C547.158 33.1278 546.421 34.3198 545.755 35.5818V26.2218H527.912V113.652H545.755V80.3136C547.438 83.4336 549.647 85.8524 552.381 87.5351C555.711 89.6035 559.708 90.6552 564.37 90.6552C570.856 90.6552 576.324 89.288 580.741 86.5185C585.158 83.7842 588.454 79.963 590.662 75.0902C592.871 70.2174 593.958 64.5733 593.958 58.158C593.958 51.7427 592.836 45.9936 590.662 40.8753C588.454 35.7571 585.123 31.6905 580.671 28.7108ZM573.415 69.341C572.047 72.0403 570.26 73.9333 568.121 74.95C565.948 76.0017 563.459 76.5275 560.619 76.5275C557.885 76.5275 555.396 76.0016 553.187 74.9149C550.979 73.8281 549.191 72.0403 547.824 69.4812C546.456 66.9571 545.755 63.5917 545.755 59.4201C545.755 54.4421 546.456 50.3405 547.824 47.1855C549.191 44.0304 551.014 41.7517 553.257 40.3845C555.501 39.0173 557.955 38.3162 560.619 38.3162C564.861 38.3162 568.402 39.8938 571.241 43.0488C574.081 46.2039 575.483 51.2519 575.483 58.158C575.483 62.9256 574.782 66.6417 573.415 69.341Z" fill="white"/>
<path d="M664 57.8074C664 50.2352 662.598 43.9251 659.828 38.877C657.024 33.8289 653.413 30.148 648.891 27.7642C644.403 25.3804 639.531 24.1885 634.272 24.1885C628.944 24.1885 623.86 25.3804 619.023 27.7993C614.185 30.2182 610.259 33.9341 607.209 38.9822C604.159 44.0303 602.651 50.2703 602.651 57.7724C602.651 65.2744 604.159 71.4793 607.209 76.3872C610.259 81.295 614.15 84.9058 618.953 87.1845C623.755 89.4632 628.838 90.62 634.237 90.62C639.32 90.62 644.088 89.7787 648.54 88.0609C652.992 86.3432 656.638 83.9243 659.478 80.8043C662.317 77.6843 663.789 74.1085 663.965 70.1121L646.121 68.8501C645.63 70.673 644.474 72.4258 642.686 74.0384C640.898 75.651 638.093 76.4574 634.272 76.4574C631.362 76.4574 628.909 75.8614 626.98 74.7045C625.017 73.5477 623.58 71.8299 622.598 69.5162C621.652 67.2375 621.161 64.433 621.161 61.1027H664V57.8074ZM621.196 50.2002C621.196 48.0267 621.687 46.0636 622.704 44.2757C623.72 42.4878 625.193 41.0505 627.121 39.9638C629.084 38.877 631.468 38.3512 634.307 38.3512C637.147 38.3512 639.531 38.877 641.494 39.9638C643.457 41.0505 644.894 42.4878 645.876 44.2757C646.822 46.0636 647.313 48.0267 647.313 50.2002H621.196Z" fill="white"/>
<path d="M414.82 77.6143C411.56 72.7415 408.756 63.1361 408.756 57.6323C408.756 52.1284 411.595 42.5581 414.82 37.6502C422.182 26.3972 434.417 19.1406 447.878 18.79C431.998 18.9303 416.082 23.2421 403.567 32.9176C395.995 38.8772 390.071 47.7464 390.106 57.6323C390.071 67.5181 395.995 76.3874 403.567 82.3469C416.117 92.0224 432.033 96.3344 447.913 96.4746C434.452 96.1591 422.182 88.8674 414.82 77.6143Z" fill="white"/>
<path d="M486.826 77.6143C490.086 72.7415 492.891 63.1361 492.891 57.6323C492.891 52.1284 490.051 42.5581 486.826 37.6502C479.464 26.3972 467.23 19.1406 453.768 18.79C469.648 18.9303 485.564 23.2421 498.079 32.9176C505.651 38.8772 511.576 47.7464 511.541 57.6323C511.576 67.5181 505.651 76.3874 498.079 82.3469C485.529 92.0224 469.613 96.3344 453.733 96.4746C467.195 96.1591 479.464 88.8674 486.826 77.6143Z" fill="white"/>
<path d="M450.648 31.3398L451.384 38.3161C452.401 48.0617 460.253 55.6339 470.034 56.2999L489.56 57.632L470.034 58.9642C460.288 59.6302 452.401 67.2375 451.384 76.948L450.648 83.9242L449.912 76.948C448.895 67.2375 441.042 59.6302 431.297 58.9642L412.086 57.632L431.297 56.2999C441.042 55.6339 448.93 48.0267 449.912 38.3161L450.648 31.3398Z" fill="white"/>
</svg>
